<svg version="1.1" id="Layer_1" xmlns="http://www.w3.org/2000/svg" xmlns:xlink="http://www.w3.org/1999/xlink" x="0px" y="0px"
	 width="100%" viewBox="0 0 960 960" enable-background="new 0 0 960 960" xml:space="preserve">
<path fill="#000000" opacity="1.000000" stroke="none" 
	d="
M538.000000,961.000000 
	C358.666656,961.000000 179.833328,961.000000 1.000000,961.000000 
	C1.000000,641.000000 1.000000,321.000000 1.000000,1.000000 
	C321.000000,1.000000 641.000000,1.000000 961.000000,1.000000 
	C961.000000,321.000000 961.000000,641.000000 961.000000,961.000000 
	C820.166687,961.000000 679.333313,961.000000 538.000000,961.000000 
M436.499908,482.803070 
	C451.329346,482.803711 466.160400,482.920898 480.986877,482.711517 
	C484.140198,482.666962 486.156769,483.726257 488.258667,485.857941 
	C502.380829,500.180511 516.592468,514.415100 530.814880,528.638428 
	C570.543091,568.368713 610.287292,608.083008 650.035217,647.793579 
	C654.746277,652.500244 659.519775,657.144287 664.744629,662.290405 
	C664.744629,601.822754 664.744629,542.406189 664.744629,482.336823 
	C605.232117,482.336823 545.967041,482.336823 485.610748,482.336823 
	C542.665039,420.749054 598.887085,360.059753 655.912842,298.502777 
	C653.636841,298.502777 652.542847,298.502930 651.448853,298.502747 
	C591.129700,298.492889 530.810486,298.453461 470.491669,298.594391 
	C468.350159,298.599396 465.647583,299.857269 464.161041,301.432190 
	C449.419312,317.050537 434.881592,332.861359 420.281403,348.613373 
	C385.786804,385.829376 351.284760,423.038574 316.797577,460.261475 
	C310.109070,467.480560 303.474121,474.749237 296.071777,482.803070 
	C343.326904,482.803070 389.413391,482.803070 436.499908,482.803070 
z"/>
<path fill="#FDFDFD" opacity="1.000000" stroke="none" 
	d="
M435.999878,482.803070 
	C389.413391,482.803070 343.326904,482.803070 296.071777,482.803070 
	C303.474121,474.749237 310.109070,467.480560 316.797577,460.261475 
	C351.284760,423.038574 385.786804,385.829376 420.281403,348.613373 
	C434.881592,332.861359 449.419312,317.050537 464.161041,301.432190 
	C465.647583,299.857269 468.350159,298.599396 470.491669,298.594391 
	C530.810486,298.453461 591.129700,298.492889 651.448853,298.502747 
	C652.542847,298.502930 653.636841,298.502777 655.912842,298.502777 
	C598.887085,360.059753 542.665039,420.749054 485.610748,482.336823 
	C545.967041,482.336823 605.232117,482.336823 664.744629,482.336823 
	C664.744629,542.406189 664.744629,601.822754 664.744629,662.290405 
	C659.519775,657.144287 654.746277,652.500244 650.035217,647.793579 
	C610.287292,608.083008 570.543091,568.368713 530.814880,528.638428 
	C516.592468,514.415100 502.380829,500.180511 488.258667,485.857941 
	C486.156769,483.726257 484.140198,482.666962 480.986877,482.711517 
	C466.160400,482.920898 451.329346,482.803711 435.999878,482.803070 
M599.680908,589.524536 
	C598.662720,593.256287 601.190063,594.027527 603.714905,593.442810 
	C606.704346,592.750366 607.755249,593.903748 608.246277,596.396667 
	C609.340332,601.951111 616.979919,602.993530 617.159546,609.261292 
	C617.167236,609.531616 618.914734,609.811401 619.870605,609.980530 
	C621.122314,610.201965 622.392761,610.317688 622.291748,610.304749 
	C624.109314,613.503357 625.144165,617.388611 626.664490,617.588928 
	C630.317078,618.070190 632.413452,618.974304 633.239014,622.753906 
	C633.445007,623.696838 635.330444,624.489563 636.591125,624.925110 
	C637.880249,625.370422 639.350159,625.292175 641.108398,625.482910 
	C638.275635,630.508423 640.797607,632.757874 644.450684,634.755737 
	C645.846863,635.519348 646.762085,637.115295 648.037170,638.160339 
	C649.441040,639.311035 650.930115,640.973450 652.518921,641.145142 
	C655.206421,641.435364 657.196899,640.177979 657.052673,636.739197 
	C656.838867,631.640747 657.075867,626.525330 656.985901,621.419495 
	C656.690063,604.631470 656.172791,587.845642 656.067261,571.056824 
	C656.014160,562.603638 656.852722,554.147888 656.941467,545.689697 
	C657.015747,538.616089 656.397461,531.536499 656.422974,524.460815 
	C656.461792,513.714233 656.665771,502.963928 657.066956,492.225189 
	C657.210022,488.393219 655.421509,487.659271 652.259888,487.998322 
	C648.973450,488.350800 645.676514,488.971832 642.393311,488.917725 
	C633.188599,488.766052 623.990601,488.194031 614.786011,488.061493 
	C610.669861,488.002258 606.541504,488.875610 602.423584,488.834534 
	C595.051514,488.761078 587.681946,488.059265 580.313477,488.092499 
	C571.610413,488.131744 562.910217,488.900238 554.207642,488.923523 
	C547.085999,488.942596 539.965454,488.189575 532.839172,488.055634 
	C528.733582,487.978455 524.619019,488.479858 520.506104,488.668396 
	C516.420227,488.855713 512.297607,488.711639 508.255676,489.222931 
	C505.644562,489.553192 503.533447,495.399628 505.601776,496.472565 
	C510.110382,498.811279 512.837585,502.667572 516.209656,506.006195 
	C516.978699,506.767639 518.549438,507.212219 518.709839,508.011566 
	C519.469543,511.797699 520.434998,514.842041 525.437195,513.530334 
	C525.891785,513.411133 527.125977,515.382690 527.623291,516.543945 
	C528.180664,517.845276 528.311279,519.329468 528.637939,520.780212 
	C531.515686,520.963928 534.076599,521.127441 537.187622,521.326111 
	C534.505310,527.712402 536.958557,530.480530 542.979919,530.368591 
	C542.657776,535.402588 542.813477,539.339478 549.242798,537.224365 
	C550.046936,536.959839 552.601318,539.196167 552.801636,540.509094 
	C553.206360,543.161621 553.708313,544.846313 556.749146,545.222107 
	C557.838013,545.356689 558.807617,546.716492 559.766724,547.588440 
	C562.004700,549.622864 564.220825,551.682373 566.405762,553.773438 
	C566.965881,554.309448 567.923340,555.224060 567.774963,555.587341 
	C565.577454,560.963989 570.352234,560.381409 572.871887,561.896179 
	C574.350586,562.785217 576.530396,564.391357 576.481995,565.598206 
	C576.309509,569.901062 578.760193,572.532593 581.793579,574.262878 
	C585.065796,576.129150 588.938416,576.942566 592.312927,578.132080 
	C592.159546,580.471680 591.992188,583.024231 591.781128,586.242737 
	C595.837585,584.991760 598.897888,584.289124 599.680908,589.524536 
M595.394836,590.200806 
	C595.786865,590.205017 596.178833,590.209167 596.570862,590.213379 
	C596.572449,590.050659 596.584900,589.746582 596.574036,589.745728 
	C596.183899,589.715698 595.791565,589.713928 595.394836,590.200806 
z"/>
<path fill="#FFFFFF" opacity="1.000000" stroke="none" 
	d="
M599.550781,589.182129 
	C598.897888,584.289124 595.837585,584.991760 591.781128,586.242737 
	C591.992188,583.024231 592.159546,580.471680 592.312927,578.132080 
	C588.938416,576.942566 585.065796,576.129150 581.793579,574.262878 
	C578.760193,572.532593 576.309509,569.901062 576.481995,565.598206 
	C576.530396,564.391357 574.350586,562.785217 572.871887,561.896179 
	C570.352234,560.381409 565.577454,560.963989 567.774963,555.587341 
	C567.923340,555.224060 566.965881,554.309448 566.405762,553.773438 
	C564.220825,551.682373 562.004700,549.622864 559.766724,547.588440 
	C558.807617,546.716492 557.838013,545.356689 556.749146,545.222107 
	C553.708313,544.846313 553.206360,543.161621 552.801636,540.509094 
	C552.601318,539.196167 550.046936,536.959839 549.242798,537.224365 
	C542.813477,539.339478 542.657776,535.402588 542.979919,530.368591 
	C536.958557,530.480530 534.505310,527.712402 537.187622,521.326111 
	C534.076599,521.127441 531.515686,520.963928 528.637939,520.780212 
	C528.311279,519.329468 528.180664,517.845276 527.623291,516.543945 
	C527.125977,515.382690 525.891785,513.411133 525.437195,513.530334 
	C520.434998,514.842041 519.469543,511.797699 518.709839,508.011566 
	C518.549438,507.212219 516.978699,506.767639 516.209656,506.006195 
	C512.837585,502.667572 510.110382,498.811279 505.601776,496.472565 
	C503.533447,495.399628 505.644562,489.553192 508.255676,489.222931 
	C512.297607,488.711639 516.420227,488.855713 520.506104,488.668396 
	C524.619019,488.479858 528.733582,487.978455 532.839172,488.055634 
	C539.965454,488.189575 547.085999,488.942596 554.207642,488.923523 
	C562.910217,488.900238 571.610413,488.131744 580.313477,488.092499 
	C587.681946,488.059265 595.051514,488.761078 602.423584,488.834534 
	C606.541504,488.875610 610.669861,488.002258 614.786011,488.061493 
	C623.990601,488.194031 633.188599,488.766052 642.393311,488.917725 
	C645.676514,488.971832 648.973450,488.350800 652.259888,487.998322 
	C655.421509,487.659271 657.210022,488.393219 657.066956,492.225189 
	C656.665771,502.963928 656.461792,513.714233 656.422974,524.460815 
	C656.397461,531.536499 657.015747,538.616089 656.941467,545.689697 
	C656.852722,554.147888 656.014160,562.603638 656.067261,571.056824 
	C656.172791,587.845642 656.690063,604.631470 656.985901,621.419495 
	C657.075867,626.525330 656.838867,631.640747 657.052673,636.739197 
	C657.196899,640.177979 655.206421,641.435364 652.518921,641.145142 
	C650.930115,640.973450 649.441040,639.311035 648.037170,638.160339 
	C646.762085,637.115295 645.846863,635.519348 644.450684,634.755737 
	C640.797607,632.757874 638.275635,630.508423 641.108398,625.482910 
	C639.350159,625.292175 637.880249,625.370422 636.591125,624.925110 
	C635.330444,624.489563 633.445007,623.696838 633.239014,622.753906 
	C632.413452,618.974304 630.317078,618.070190 626.664490,617.588928 
	C625.144165,617.388611 624.109314,613.503357 622.291748,610.304749 
	C622.392761,610.317688 621.122314,610.201965 619.870605,609.980530 
	C618.914734,609.811401 617.167236,609.531616 617.159546,609.261292 
	C616.979919,602.993530 609.340332,601.951111 608.246277,596.396667 
	C607.755249,593.903748 606.704346,592.750366 603.714905,593.442810 
	C601.190063,594.027527 598.662720,593.256287 599.550781,589.182129 
z"/>
<path fill="#FFFFFF" opacity="1.000000" stroke="none" 
	d="
M595.397217,589.954529 
	C595.791565,589.713928 596.183899,589.715698 596.574036,589.745728 
	C596.584900,589.746582 596.572449,590.050659 596.570862,590.213379 
	C596.178833,590.209167 595.786865,590.205017 595.397217,589.954529 
z"/>
</svg>